<?xml version="1.0" encoding="utf-8"?>
<!DOCTYPE svg PUBLIC "-//W3C//DTD SVG 1.1//EN" "http://www.w3.org/Graphics/SVG/1.1/DTD/svg11.dtd">
<svg version="1.1" id="SpezELadung_x5F_EKanone" xmlns="http://www.w3.org/2000/svg" xmlns:xlink="http://www.w3.org/1999/xlink"
	 x="0px" y="0px" width="400px" height="180px" viewBox="0 0 400 180" enable-background="new 0 0 400 180" xml:space="preserve">
<rect id="Hintergrund" fill="#FFFFFF" width="400" height="180.001"/>
<g id="Skizze">
	<g id="Gluehdraht_2_">
		<ellipse fill="none" stroke="#000000" cx="222.379" cy="59.206" rx="8.102" ry="3.241"/>
		<ellipse fill="none" stroke="#000000" cx="222.379" cy="55.206" rx="8.102" ry="3.241"/>
		<ellipse fill="none" stroke="#000000" cx="222.379" cy="62.206" rx="8.102" ry="3.241"/>
		<ellipse fill="none" stroke="#000000" cx="222.379" cy="66.206" rx="8.102" ry="3.241"/>
		<ellipse fill="none" stroke="#000000" cx="222.379" cy="70.206" rx="8.102" ry="3.241"/>
		<ellipse fill="none" stroke="#000000" cx="222.379" cy="74.206" rx="8.102" ry="3.241"/>
		<ellipse fill="none" stroke="#000000" cx="222.379" cy="78.206" rx="8.102" ry="3.241"/>
		<ellipse fill="none" stroke="#000000" cx="222.379" cy="82.206" rx="8.102" ry="3.241"/>
		<ellipse fill="none" stroke="#000000" cx="222.379" cy="86.206" rx="8.102" ry="3.241"/>
		<ellipse fill="none" stroke="#000000" cx="222.379" cy="90.206" rx="8.102" ry="3.242"/>
		<ellipse fill="none" stroke="#000000" cx="222.379" cy="94.206" rx="8.102" ry="3.242"/>
		<ellipse fill="none" stroke="#000000" cx="222.379" cy="98.206" rx="8.102" ry="3.242"/>
		<ellipse fill="none" stroke="#000000" cx="222.379" cy="102.206" rx="8.102" ry="3.242"/>
		<line fill="none" stroke="#000000" x1="222.379" y1="51.965" x2="96.942" y2="51.965"/>
		<line fill="none" stroke="#000000" x1="222.379" y1="105.448" x2="96.942" y2="105.448"/>
	</g>
	<g id="WehneltZylinder" opacity="0.6">
		<path fill="none" stroke="#000000" stroke-width="0.5" d="M174.794,44.04c2.359,0,3.852,20.655,3.852,34.667
			c0,14.012-1.61,34.667-3.852,34.667"/>
		<linearGradient id="SVGID_1_" gradientUnits="userSpaceOnUse" x1="213.3115" y1="113.373" x2="213.3115" y2="44.04">
			<stop  offset="0" style="stop-color:#404041"/>
			<stop  offset="0.7152" style="stop-color:#F1F1F2"/>
			<stop  offset="1" style="stop-color:#6D6E70"/>
		</linearGradient>
		<path opacity="0.8" fill="url(#SVGID_1_)" stroke="#000000" stroke-width="0.5" d="M255.682,113.373c0,0-78.534,0-80.887,0
			c-2.354,0-3.852-19.545-3.852-34.667s1.498-34.667,3.852-34.667c2.354,0,80.887,0,80.887,0V113.373z"/>
		<ellipse fill="#A6A8AB" stroke="#000000" stroke-width="0.5" cx="255.682" cy="78.706" rx="3.852" ry="34.667"/>
		<ellipse fill="#FFFFFF" stroke="#000000" stroke-width="0.5" cx="255.683" cy="78.706" rx="1.541" ry="13.868"/>
	</g>
	<g id="Anode">
		<linearGradient id="SVGID_2_" gradientUnits="userSpaceOnUse" x1="300.8789" y1="120.3066" x2="300.8789" y2="37.1069">
			<stop  offset="0" style="stop-color:#404041"/>
			<stop  offset="0.7152" style="stop-color:#F1F1F2"/>
			<stop  offset="1" style="stop-color:#6D6E70"/>
		</linearGradient>
		<path fill="url(#SVGID_2_)" stroke="#000000" stroke-width="0.5" d="M305.683,37.106v83.2c0,0-2.606,0-4.984,0
			c-2.552,0-4.622-18.626-4.622-41.601c0-22.975,2.07-41.6,4.622-41.6C303.252,37.106,305.683,37.106,305.683,37.106z"/>
		<ellipse fill="#A6A8AB" stroke="#000000" stroke-width="0.5" cx="305.683" cy="78.706" rx="4.622" ry="41.601"/>
		<linearGradient id="SVGID_3_" gradientUnits="userSpaceOnUse" x1="305.6836" y1="92.5742" x2="305.6836" y2="64.8403">
			<stop  offset="0" style="stop-color:#6D6E70"/>
			<stop  offset="0.2848" style="stop-color:#A6A8AB"/>
			<stop  offset="1" style="stop-color:#404041"/>
		</linearGradient>
		<ellipse fill="url(#SVGID_3_)" stroke="#000000" stroke-width="0.5" cx="305.683" cy="78.706" rx="1.541" ry="13.868"/>
	</g>
</g>
<g id="Schaltung">
	<g id="Gleichspannungsquelle_1_">
		<circle fill="none" stroke="#1A171B" cx="89.442" cy="92.206" r="4.5"/>
		<circle fill="#1A171B" stroke="#1A171B" cx="89.442" cy="65.206" r="4.5"/>
		<polyline fill="none" stroke="#1A171B" points="89.442,60.706 89.442,51.965 96.942,51.965 		"/>
		<polyline fill="none" stroke="#1A171B" points="89.442,96.706 89.442,105.448 96.942,105.448 		"/>
	</g>
	<g id="Gleichspannungsquelle">
		<circle fill="none" stroke="#1A171B" cx="200.938" cy="157.56" r="4.5"/>
		<circle fill="#1A171B" stroke="#1A171B" cx="227.938" cy="157.56" r="4.5"/>
		<line fill="none" stroke="#1A171B" x1="232.438" y1="157.56" x2="250.438" y2="157.56"/>
		<line fill="none" stroke="#1A171B" x1="196.438" y1="157.56" x2="178.438" y2="157.56"/>
	</g>
	<polyline fill="none" stroke="#231F20" points="302.875,120.307 302.875,157.56 250.438,157.56 	"/>
	<polyline fill="none" stroke="#231F20" points="133,105.448 133,157.56 178.438,157.56 	"/>
	<g id="MinusPol">
		<circle fill="none" stroke="#1A171B" cx="215.334" cy="21.54" r="4.5"/>
		<line fill="none" stroke="#1A171B" x1="215.334" y1="26.04" x2="215.334" y2="44.04"/>
	</g>
</g>
<g id="Beschriftung">
	<g>
		<path d="M158.422,131.504l-0.703-11.453h1.555l0.266,5.664c0.016,0.271,0.042,1.005,0.078,2.203
			c0.01,0.333,0.016,0.567,0.016,0.703c0,0.089-0.003,0.347-0.008,0.773c0.635-1.302,1.094-2.219,1.375-2.75l3.484-6.594h1.578
			l0.383,6.695c0.042,0.766,0.07,1.688,0.086,2.766c0.094-0.266,0.26-0.661,0.5-1.188c0.38-0.849,0.661-1.456,0.844-1.82
			l3.266-6.453h1.563l-5.828,11.453h-1.641l-0.383-6.938c-0.037-0.594-0.065-1.323-0.086-2.188
			c-0.318,0.724-0.583,1.286-0.797,1.688L160,131.504H158.422z"/>
		<path d="M177.156,128.684l1.375,0.141c-0.198,0.683-0.652,1.331-1.363,1.945s-1.559,0.922-2.543,0.922
			c-0.614,0-1.179-0.142-1.691-0.426c-0.513-0.284-0.904-0.696-1.172-1.238c-0.269-0.542-0.402-1.159-0.402-1.852
			c0-0.906,0.209-1.785,0.629-2.637c0.419-0.852,0.962-1.484,1.629-1.898s1.388-0.621,2.164-0.621c0.989,0,1.78,0.308,2.371,0.922
			s0.887,1.453,0.887,2.516c0,0.406-0.036,0.823-0.109,1.25h-6.109c-0.021,0.161-0.031,0.308-0.031,0.438
			c0,0.776,0.178,1.368,0.535,1.777c0.356,0.409,0.793,0.613,1.309,0.613c0.484,0,0.961-0.159,1.43-0.477
			S176.896,129.282,177.156,128.684z M173.047,126.629h4.656c0.005-0.146,0.008-0.25,0.008-0.313c0-0.708-0.177-1.251-0.531-1.629
			s-0.81-0.566-1.367-0.566c-0.604,0-1.155,0.208-1.652,0.625C173.663,125.163,173.292,125.79,173.047,126.629z"/>
		<path d="M179.961,131.504l2.391-11.453h1.414l-0.914,4.398c0.526-0.511,1.016-0.876,1.469-1.098s0.919-0.332,1.398-0.332
			c0.688,0,1.222,0.181,1.602,0.543s0.57,0.84,0.57,1.434c0,0.292-0.083,0.828-0.25,1.609l-1.023,4.898h-1.414l1.055-5.023
			c0.151-0.729,0.227-1.188,0.227-1.375c0-0.271-0.094-0.492-0.281-0.664s-0.458-0.258-0.813-0.258
			c-0.511,0-0.997,0.134-1.461,0.402s-0.827,0.636-1.09,1.102s-0.504,1.218-0.723,2.254l-0.742,3.563H179.961z"/>
		<path d="M188.859,131.504l1.734-8.297h1.281l-0.305,1.445c0.558-0.567,1.078-0.981,1.563-1.242s0.979-0.391,1.484-0.391
			c0.672,0,1.199,0.183,1.582,0.547s0.574,0.852,0.574,1.461c0,0.308-0.067,0.792-0.203,1.453l-1.055,5.023h-1.414l1.102-5.258
			c0.109-0.511,0.164-0.888,0.164-1.133c0-0.276-0.095-0.5-0.285-0.672s-0.465-0.258-0.824-0.258c-0.724,0-1.368,0.261-1.934,0.781
			s-0.98,1.414-1.246,2.68l-0.805,3.859H188.859z"/>
		<path d="M203.852,128.684l1.375,0.141c-0.198,0.683-0.652,1.331-1.363,1.945s-1.559,0.922-2.543,0.922
			c-0.614,0-1.179-0.142-1.691-0.426s-0.903-0.696-1.172-1.238s-0.402-1.159-0.402-1.852c0-0.906,0.21-1.785,0.629-2.637
			s0.962-1.484,1.629-1.898s1.388-0.621,2.164-0.621c0.989,0,1.78,0.308,2.371,0.922s0.887,1.453,0.887,2.516
			c0,0.406-0.036,0.823-0.109,1.25h-6.109c-0.021,0.161-0.031,0.308-0.031,0.438c0,0.776,0.179,1.368,0.535,1.777
			s0.793,0.613,1.309,0.613c0.484,0,0.961-0.159,1.43-0.477S203.591,129.282,203.852,128.684z M199.742,126.629h4.656
			c0.005-0.146,0.008-0.25,0.008-0.313c0-0.708-0.177-1.251-0.531-1.629s-0.81-0.566-1.367-0.566c-0.604,0-1.155,0.208-1.652,0.625
			S199.987,125.79,199.742,126.629z"/>
		<path d="M206.547,131.504l2.391-11.453h1.414l-2.391,11.453H206.547z"/>
		<path d="M213.516,130.355l-0.234,1.156c-0.339,0.089-0.667,0.133-0.984,0.133c-0.563,0-1.011-0.138-1.344-0.414
			c-0.25-0.208-0.375-0.492-0.375-0.852c0-0.183,0.067-0.602,0.203-1.258l1.008-4.82h-1.117l0.227-1.094h1.117l0.43-2.039
			l1.617-0.977l-0.633,3.016h1.391l-0.234,1.094h-1.383l-0.961,4.586c-0.12,0.583-0.18,0.933-0.18,1.047
			c0,0.167,0.048,0.294,0.145,0.383s0.254,0.133,0.473,0.133C212.992,130.449,213.271,130.418,213.516,130.355z"/>
		<path d="M214.438,131.504l0.227-1.094l4.461-5.023c0.317-0.354,0.672-0.722,1.063-1.102c-0.672,0.067-1.153,0.102-1.445,0.102
			h-3.086l0.25-1.18h6.414l-0.188,0.891l-4.5,5.055c-0.255,0.286-0.636,0.68-1.141,1.18c0.786-0.047,1.325-0.07,1.617-0.07h3.266
			l-0.258,1.242H214.438z"/>
		<path d="M222.125,134.707l0.086-1.328c0.292,0.083,0.575,0.125,0.852,0.125c0.286,0,0.519-0.065,0.695-0.195
			c0.229-0.172,0.479-0.495,0.75-0.969l0.453-0.813l-1.383-8.32h1.391l0.625,4.195c0.125,0.828,0.231,1.656,0.32,2.484l3.711-6.68
			h1.477l-5.289,9.398c-0.511,0.917-0.964,1.523-1.359,1.82s-0.852,0.445-1.367,0.445
			C222.758,134.871,222.438,134.816,222.125,134.707z"/>
		<path d="M230.547,131.504l2.391-11.453h1.414l-2.391,11.453H230.547z"/>
		<path d="M234.156,131.504l1.734-8.297h1.414l-1.734,8.297H234.156z M236.219,121.652l0.336-1.602h1.406l-0.336,1.602H236.219z"/>
		<path d="M237.766,131.504l1.734-8.297h1.281l-0.305,1.445c0.558-0.567,1.078-0.981,1.563-1.242s0.979-0.391,1.484-0.391
			c0.672,0,1.199,0.183,1.582,0.547s0.574,0.852,0.574,1.461c0,0.308-0.067,0.792-0.203,1.453l-1.055,5.023h-1.414l1.102-5.258
			c0.109-0.511,0.164-0.888,0.164-1.133c0-0.276-0.095-0.5-0.285-0.672s-0.465-0.258-0.824-0.258c-0.724,0-1.368,0.261-1.934,0.781
			s-0.98,1.414-1.246,2.68l-0.805,3.859H237.766z"/>
		<path d="M252.258,130.301c-0.808,0.927-1.651,1.391-2.531,1.391c-0.786,0-1.441-0.29-1.965-0.871s-0.785-1.423-0.785-2.527
			c0-1.011,0.207-1.934,0.621-2.77s0.933-1.462,1.555-1.879s1.246-0.625,1.871-0.625c1.031,0,1.81,0.497,2.336,1.492l0.938-4.461
			h1.406l-2.391,11.453h-1.305L252.258,130.301z M248.383,128.027c0,0.578,0.058,1.034,0.172,1.367s0.31,0.61,0.586,0.832
			s0.606,0.332,0.992,0.332c0.641,0,1.222-0.333,1.742-1c0.698-0.886,1.047-1.979,1.047-3.281c0-0.656-0.172-1.169-0.516-1.539
			s-0.776-0.555-1.297-0.555c-0.339,0-0.647,0.075-0.926,0.227s-0.555,0.407-0.828,0.77s-0.504,0.821-0.691,1.379
			S248.383,127.605,248.383,128.027z"/>
		<path d="M261.656,128.684l1.375,0.141c-0.198,0.683-0.652,1.331-1.363,1.945s-1.559,0.922-2.543,0.922
			c-0.614,0-1.179-0.142-1.691-0.426s-0.903-0.696-1.172-1.238s-0.402-1.159-0.402-1.852c0-0.906,0.21-1.785,0.629-2.637
			s0.962-1.484,1.629-1.898s1.388-0.621,2.164-0.621c0.989,0,1.78,0.308,2.371,0.922s0.887,1.453,0.887,2.516
			c0,0.406-0.036,0.823-0.109,1.25h-6.109c-0.021,0.161-0.031,0.308-0.031,0.438c0,0.776,0.179,1.368,0.535,1.777
			s0.793,0.613,1.309,0.613c0.484,0,0.961-0.159,1.43-0.477S261.396,129.282,261.656,128.684z M257.547,126.629h4.656
			c0.005-0.146,0.008-0.25,0.008-0.313c0-0.708-0.177-1.251-0.531-1.629s-0.81-0.566-1.367-0.566c-0.604,0-1.155,0.208-1.652,0.625
			S257.792,125.79,257.547,126.629z"/>
		<path d="M264.461,131.504l1.734-8.297h1.25l-0.352,1.695c0.427-0.641,0.845-1.114,1.254-1.422s0.827-0.461,1.254-0.461
			c0.281,0,0.628,0.102,1.039,0.305l-0.578,1.313c-0.245-0.177-0.513-0.266-0.805-0.266c-0.495,0-1.003,0.276-1.523,0.828
			s-0.93,1.544-1.227,2.977l-0.703,3.328H264.461z"/>
	</g>
	<g>
		<path d="M102.555,24.911l0.273-1.297h5.016l-0.977,4.664c-0.63,0.396-1.349,0.719-2.156,0.969s-1.602,0.375-2.383,0.375
			c-1.667,0-2.911-0.502-3.734-1.508c-0.692-0.849-1.039-1.94-1.039-3.273c0-1.375,0.304-2.626,0.91-3.754
			c0.606-1.127,1.372-1.961,2.297-2.5s1.952-0.809,3.082-0.809c0.813,0,1.542,0.147,2.188,0.441c0.646,0.294,1.141,0.688,1.484,1.18
			s0.591,1.134,0.742,1.926l-1.5,0.164c-0.161-0.786-0.496-1.389-1.004-1.809c-0.508-0.419-1.16-0.629-1.957-0.629
			c-0.828,0-1.602,0.226-2.32,0.676c-0.719,0.451-1.293,1.13-1.723,2.039c-0.43,0.909-0.645,1.941-0.645,3.098
			c0,1.151,0.284,2.021,0.852,2.609c0.567,0.589,1.352,0.883,2.352,0.883c0.995,0,2.065-0.328,3.211-0.984l0.516-2.461H102.555z"/>
		<path d="M108.867,29.427l2.391-11.453h1.414l-2.391,11.453H108.867z"/>
		<path d="M118.195,27.927c-0.995,1.125-2.013,1.688-3.055,1.688c-0.641,0-1.157-0.184-1.551-0.551S113,28.247,113,27.716
			c0-0.349,0.089-0.948,0.266-1.797l1-4.789h1.414l-1.109,5.305c-0.094,0.443-0.141,0.787-0.141,1.031
			c0,0.313,0.095,0.556,0.285,0.73c0.19,0.175,0.47,0.262,0.84,0.262c0.396,0,0.782-0.096,1.16-0.289
			c0.378-0.192,0.703-0.453,0.977-0.781s0.496-0.716,0.668-1.164c0.114-0.286,0.247-0.789,0.398-1.508l0.75-3.586h1.414
			l-1.734,8.297h-1.305L118.195,27.927z M115.531,19.841l0.336-1.602h1.477l-0.336,1.602H115.531z M118.414,19.841l0.336-1.602
			h1.469l-0.328,1.602H118.414z"/>
		<path d="M121.43,29.427l2.391-11.453h1.414l-0.914,4.398c0.526-0.51,1.016-0.876,1.469-1.098c0.453-0.221,0.919-0.332,1.398-0.332
			c0.688,0,1.222,0.181,1.602,0.543c0.38,0.362,0.57,0.84,0.57,1.434c0,0.292-0.083,0.828-0.25,1.609l-1.023,4.898h-1.414
			l1.055-5.023c0.151-0.729,0.227-1.188,0.227-1.375c0-0.271-0.094-0.492-0.281-0.664s-0.458-0.258-0.813-0.258
			c-0.511,0-0.997,0.134-1.461,0.402c-0.464,0.269-0.827,0.636-1.09,1.102c-0.263,0.466-0.504,1.218-0.723,2.254l-0.742,3.563
			H121.43z"/>
		<path d="M130.344,29.427l2.398-11.453h1.406l-1.484,7.102l4.125-3.945h1.867l-3.539,3.094l2.141,5.203h-1.547l-1.656-4.258
			l-1.719,1.484l-0.578,2.773H130.344z"/>
		<path d="M143.922,28.396c-0.489,0.422-0.961,0.73-1.414,0.926s-0.938,0.293-1.453,0.293c-0.766,0-1.383-0.225-1.852-0.676
			c-0.469-0.45-0.703-1.027-0.703-1.73c0-0.463,0.105-0.874,0.316-1.23c0.211-0.356,0.491-0.643,0.84-0.859
			c0.349-0.216,0.776-0.371,1.281-0.465c0.317-0.063,0.921-0.112,1.809-0.148c0.888-0.036,1.524-0.13,1.91-0.281
			c0.109-0.385,0.164-0.706,0.164-0.961c0-0.328-0.12-0.586-0.359-0.773c-0.328-0.26-0.808-0.391-1.438-0.391
			c-0.594,0-1.079,0.132-1.457,0.395c-0.378,0.263-0.652,0.637-0.824,1.121l-1.43-0.125c0.292-0.823,0.754-1.453,1.387-1.891
			s1.431-0.656,2.395-0.656c1.026,0,1.839,0.245,2.438,0.734c0.458,0.365,0.688,0.839,0.688,1.422c0,0.443-0.065,0.956-0.195,1.539
			l-0.461,2.063c-0.146,0.656-0.219,1.19-0.219,1.602c0,0.261,0.058,0.636,0.172,1.125h-1.43
			C144.008,29.156,143.953,28.813,143.922,28.396z M144.445,25.224c-0.198,0.078-0.41,0.138-0.637,0.18
			c-0.227,0.042-0.605,0.086-1.137,0.133c-0.823,0.073-1.403,0.166-1.742,0.277c-0.339,0.112-0.594,0.291-0.766,0.535
			c-0.172,0.245-0.258,0.516-0.258,0.813c0,0.396,0.137,0.722,0.41,0.977c0.273,0.255,0.663,0.383,1.168,0.383
			c0.469,0,0.919-0.124,1.352-0.371c0.433-0.247,0.773-0.592,1.023-1.035C144.109,26.672,144.305,26.042,144.445,25.224z"/>
		<path d="M150.531,28.278l-0.234,1.156c-0.339,0.088-0.667,0.133-0.984,0.133c-0.563,0-1.011-0.138-1.344-0.414
			c-0.25-0.208-0.375-0.492-0.375-0.852c0-0.182,0.067-0.602,0.203-1.258l1.008-4.82h-1.117l0.227-1.094h1.117l0.43-2.039
			l1.617-0.977l-0.633,3.016h1.391l-0.234,1.094h-1.383l-0.961,4.586c-0.12,0.583-0.18,0.933-0.18,1.047
			c0,0.167,0.048,0.294,0.145,0.383c0.097,0.089,0.254,0.133,0.473,0.133C150.008,28.372,150.286,28.341,150.531,28.278z"/>
		<path d="M151.672,29.427l2.391-11.453h1.414l-0.914,4.398c0.526-0.51,1.016-0.876,1.469-1.098
			c0.453-0.221,0.919-0.332,1.398-0.332c0.688,0,1.222,0.181,1.602,0.543c0.38,0.362,0.57,0.84,0.57,1.434
			c0,0.292-0.083,0.828-0.25,1.609l-1.023,4.898h-1.414l1.055-5.023c0.151-0.729,0.227-1.188,0.227-1.375
			c0-0.271-0.094-0.492-0.281-0.664s-0.458-0.258-0.813-0.258c-0.511,0-0.997,0.134-1.461,0.402
			c-0.464,0.269-0.827,0.636-1.09,1.102c-0.263,0.466-0.504,1.218-0.723,2.254l-0.742,3.563H151.672z"/>
		<path d="M160.82,26.278c0-1.62,0.477-2.961,1.43-4.023c0.786-0.875,1.817-1.313,3.094-1.313c1,0,1.806,0.313,2.418,0.938
			s0.918,1.469,0.918,2.531c0,0.953-0.192,1.84-0.578,2.66s-0.934,1.449-1.645,1.887s-1.46,0.656-2.246,0.656
			c-0.646,0-1.233-0.138-1.762-0.414s-0.933-0.667-1.211-1.172C160.96,27.523,160.82,26.94,160.82,26.278z M162.234,26.138
			c0,0.781,0.188,1.374,0.563,1.777c0.375,0.404,0.852,0.605,1.43,0.605c0.302,0,0.602-0.061,0.898-0.184
			c0.297-0.122,0.573-0.309,0.828-0.559s0.473-0.535,0.652-0.855s0.324-0.665,0.434-1.035c0.161-0.516,0.242-1.01,0.242-1.484
			c0-0.75-0.188-1.332-0.566-1.746s-0.853-0.621-1.426-0.621c-0.442,0-0.847,0.105-1.211,0.316s-0.694,0.52-0.988,0.926
			s-0.511,0.879-0.648,1.418S162.234,25.716,162.234,26.138z"/>
		<path d="M175.063,28.224c-0.808,0.927-1.651,1.391-2.531,1.391c-0.786,0-1.441-0.29-1.965-0.871
			c-0.523-0.581-0.785-1.423-0.785-2.527c0-1.01,0.207-1.934,0.621-2.77s0.933-1.462,1.555-1.879
			c0.622-0.417,1.246-0.625,1.871-0.625c1.031,0,1.81,0.498,2.336,1.492l0.938-4.461h1.406l-2.391,11.453h-1.305L175.063,28.224z
			 M171.188,25.95c0,0.578,0.058,1.034,0.172,1.367c0.114,0.333,0.31,0.611,0.586,0.832c0.276,0.222,0.606,0.332,0.992,0.332
			c0.641,0,1.222-0.333,1.742-1c0.698-0.885,1.047-1.979,1.047-3.281c0-0.656-0.172-1.169-0.516-1.539
			c-0.344-0.37-0.776-0.555-1.297-0.555c-0.339,0-0.647,0.076-0.926,0.227c-0.278,0.151-0.555,0.408-0.828,0.77
			c-0.273,0.362-0.504,0.822-0.691,1.379C171.281,25.039,171.188,25.528,171.188,25.95z"/>
		<path d="M184.461,26.606l1.375,0.141c-0.198,0.683-0.652,1.331-1.363,1.945c-0.711,0.615-1.559,0.922-2.543,0.922
			c-0.614,0-1.179-0.142-1.691-0.426s-0.903-0.696-1.172-1.238c-0.269-0.542-0.402-1.159-0.402-1.852
			c0-0.906,0.21-1.785,0.629-2.637s0.962-1.484,1.629-1.898s1.388-0.621,2.164-0.621c0.989,0,1.78,0.308,2.371,0.922
			c0.591,0.615,0.887,1.453,0.887,2.516c0,0.406-0.036,0.823-0.109,1.25h-6.109c-0.021,0.162-0.031,0.308-0.031,0.438
			c0,0.776,0.179,1.369,0.535,1.777c0.356,0.409,0.793,0.613,1.309,0.613c0.484,0,0.961-0.159,1.43-0.477
			C183.836,27.664,184.2,27.206,184.461,26.606z M180.352,24.552h4.656c0.005-0.146,0.008-0.25,0.008-0.313
			c0-0.708-0.177-1.251-0.531-1.629c-0.354-0.377-0.81-0.566-1.367-0.566c-0.604,0-1.155,0.208-1.652,0.625
			C180.968,23.086,180.597,23.713,180.352,24.552z"/>
	</g>
	<g>
		<path d="M272.18,29.427l6.492-11.453h1.805l1.891,11.453h-1.484l-0.555-3.297h-4.633l-1.836,3.297H272.18z M276.352,24.95h3.789
			l-0.445-2.875c-0.172-1.141-0.278-2.091-0.32-2.852c-0.261,0.656-0.641,1.435-1.141,2.336L276.352,24.95z"/>
		<path d="M283.703,29.427l1.734-8.297h1.281l-0.305,1.445c0.558-0.567,1.078-0.981,1.563-1.242c0.484-0.26,0.979-0.391,1.484-0.391
			c0.672,0,1.199,0.183,1.582,0.547c0.383,0.365,0.574,0.852,0.574,1.461c0,0.308-0.067,0.792-0.203,1.453l-1.055,5.023h-1.414
			l1.102-5.258c0.109-0.51,0.164-0.888,0.164-1.133c0-0.276-0.095-0.5-0.285-0.672s-0.465-0.258-0.824-0.258
			c-0.724,0-1.368,0.261-1.934,0.781c-0.565,0.521-0.98,1.414-1.246,2.68l-0.805,3.859H283.703z"/>
		<path d="M292.852,26.278c0-1.62,0.477-2.961,1.43-4.023c0.786-0.875,1.817-1.313,3.094-1.313c1,0,1.806,0.313,2.418,0.938
			s0.918,1.469,0.918,2.531c0,0.953-0.192,1.84-0.578,2.66s-0.934,1.449-1.645,1.887s-1.46,0.656-2.246,0.656
			c-0.646,0-1.233-0.138-1.762-0.414s-0.933-0.667-1.211-1.172C292.991,27.523,292.852,26.94,292.852,26.278z M294.266,26.138
			c0,0.781,0.188,1.374,0.563,1.777c0.375,0.404,0.852,0.605,1.43,0.605c0.302,0,0.602-0.061,0.898-0.184
			c0.297-0.122,0.573-0.309,0.828-0.559s0.473-0.535,0.652-0.855s0.324-0.665,0.434-1.035c0.161-0.516,0.242-1.01,0.242-1.484
			c0-0.75-0.188-1.332-0.566-1.746s-0.853-0.621-1.426-0.621c-0.442,0-0.847,0.105-1.211,0.316s-0.694,0.52-0.988,0.926
			s-0.511,0.879-0.648,1.418S294.266,25.716,294.266,26.138z"/>
		<path d="M307.094,28.224c-0.808,0.927-1.651,1.391-2.531,1.391c-0.786,0-1.441-0.29-1.965-0.871
			c-0.523-0.581-0.785-1.423-0.785-2.527c0-1.01,0.207-1.934,0.621-2.77s0.933-1.462,1.555-1.879
			c0.622-0.417,1.246-0.625,1.871-0.625c1.031,0,1.81,0.498,2.336,1.492l0.938-4.461h1.406l-2.391,11.453h-1.305L307.094,28.224z
			 M303.219,25.95c0,0.578,0.058,1.034,0.172,1.367c0.114,0.333,0.31,0.611,0.586,0.832c0.276,0.222,0.606,0.332,0.992,0.332
			c0.641,0,1.222-0.333,1.742-1c0.698-0.885,1.047-1.979,1.047-3.281c0-0.656-0.172-1.169-0.516-1.539
			c-0.344-0.37-0.776-0.555-1.297-0.555c-0.339,0-0.647,0.076-0.926,0.227c-0.278,0.151-0.555,0.408-0.828,0.77
			c-0.273,0.362-0.504,0.822-0.691,1.379C303.313,25.039,303.219,25.528,303.219,25.95z"/>
		<path d="M316.492,26.606l1.375,0.141c-0.198,0.683-0.652,1.331-1.363,1.945c-0.711,0.615-1.559,0.922-2.543,0.922
			c-0.614,0-1.179-0.142-1.691-0.426s-0.903-0.696-1.172-1.238c-0.269-0.542-0.402-1.159-0.402-1.852
			c0-0.906,0.21-1.785,0.629-2.637s0.962-1.484,1.629-1.898s1.388-0.621,2.164-0.621c0.989,0,1.78,0.308,2.371,0.922
			c0.591,0.615,0.887,1.453,0.887,2.516c0,0.406-0.036,0.823-0.109,1.25h-6.109c-0.021,0.162-0.031,0.308-0.031,0.438
			c0,0.776,0.179,1.369,0.535,1.777c0.356,0.409,0.793,0.613,1.309,0.613c0.484,0,0.961-0.159,1.43-0.477
			C315.867,27.664,316.231,27.206,316.492,26.606z M312.383,24.552h4.656c0.005-0.146,0.008-0.25,0.008-0.313
			c0-0.708-0.177-1.251-0.531-1.629c-0.354-0.377-0.81-0.566-1.367-0.566c-0.604,0-1.155,0.208-1.652,0.625
			C312.999,23.086,312.628,23.713,312.383,24.552z"/>
	</g>
	<g id="Pfeil_1_">
		<polygon id="PfeilGerade_4_" fill="#1A171B" points="212.973,49.131 210.905,39.966 208.611,42.377 205.482,43.514 		"/>
		<path fill="none" stroke="#1A171B" d="M190.083,26.04c9.917,0,15.399,11.354,20.518,19.383"/>
	</g>
	<g>
		<path d="M227.339,173.521v-3.141h-3.117v-1.313h3.117v-3.117h1.328v3.117h3.117v1.313h-3.117v3.141H227.339z"/>
	</g>
	<g>
		<path d="M198.738,170.455v-1.414h4.321v1.414H198.738z"/>
	</g>
	<g>
		<path d="M213.176,11.205V9.791h4.32v1.414H213.176z"/>
	</g>
	<g>
		<path d="M74.428,69.375v-3.141h-3.117v-1.313h3.117v-3.117h1.328v3.117h3.117v1.313h-3.117v3.141H74.428z"/>
	</g>
	<g>
		<path d="M72.936,93.289v-1.414h4.32v1.414H72.936z"/>
	</g>
</g>
</svg>
